<svg width="18" height="18" viewBox="0 0 18 18" fill="none" xmlns="http://www.w3.org/2000/svg">
<g opacity="0.6">
<path d="M9.89459 2.38892C9.76934 2.38892 9.64923 2.43867 9.56067 2.52723C9.47211 2.61579 9.42236 2.7359 9.42236 2.86114C9.42236 2.98638 9.47211 3.10649 9.56067 3.19505C9.64923 3.28361 9.76934 3.33336 9.89459 3.33336H14.4232L10.0551 7.70142C10.0057 7.74375 9.96556 7.79584 9.93722 7.85443C9.90887 7.91302 9.89294 7.97683 9.89043 8.04186C9.88792 8.1069 9.89888 8.17175 9.92262 8.23235C9.94636 8.29294 9.98237 8.34798 10.0284 8.394C10.0744 8.44002 10.1294 8.47603 10.19 8.49977C10.2506 8.52351 10.3155 8.53447 10.3805 8.53196C10.4456 8.52945 10.5094 8.51352 10.568 8.48517C10.6265 8.45683 10.6786 8.41668 10.721 8.36725L15.089 3.99919V8.5278C15.089 8.65305 15.1388 8.77316 15.2273 8.86172C15.3159 8.95027 15.436 9.00003 15.5613 9.00003C15.6865 9.00003 15.8066 8.95027 15.8952 8.86172C15.9837 8.77316 16.0335 8.65305 16.0335 8.5278V2.38892H9.89459Z" fill="black"/>
<path d="M2.81104 9.47222C2.81104 9.34698 2.86079 9.22687 2.94935 9.13831C3.0379 9.04975 3.15802 9 3.28326 9C3.4085 9 3.52861 9.04975 3.61717 9.13831C3.70573 9.22687 3.75548 9.34698 3.75548 9.47222V14.0008L8.12353 9.63278C8.16587 9.58335 8.21796 9.5432 8.27655 9.51485C8.33513 9.48651 8.39895 9.47058 8.46398 9.46807C8.52902 9.46556 8.59387 9.47651 8.65446 9.50025C8.71506 9.524 8.7701 9.56001 8.81612 9.60603C8.86214 9.65205 8.89815 9.70708 8.92189 9.76768C8.94563 9.82828 8.95659 9.89313 8.95408 9.95816C8.95157 10.0232 8.93564 10.087 8.90729 10.1456C8.87895 10.2042 8.8388 10.2563 8.78937 10.2986L4.42131 14.6667H8.94992C9.07516 14.6667 9.19528 14.7164 9.28384 14.805C9.37239 14.8935 9.42215 15.0136 9.42215 15.1389C9.42215 15.2641 9.37239 15.3842 9.28384 15.4728C9.19528 15.5614 9.07516 15.6111 8.94992 15.6111H2.81104V9.47222Z" fill="black"/>
</g>
</svg>
