<svg width="17" height="17" viewBox="0 0 17 17" fill="none" xmlns="http://www.w3.org/2000/svg">
<path d="M15.3286 9.79692H2.57861V3.82036C2.578 3.59529 2.62203 3.37233 2.70816 3.16439C2.7943 2.95645 2.92082 2.76766 3.08041 2.60895L3.09369 2.59567C3.3438 2.34593 3.66491 2.17949 4.01316 2.1191C4.36141 2.05871 4.71981 2.10731 5.0394 2.25826C4.73757 2.76008 4.61212 3.34839 4.68297 3.92969C4.75383 4.51099 5.01693 5.05194 5.43046 5.46657L5.79407 5.83018L5.12479 6.49949L5.87605 7.25074L6.54532 6.58147L10.2537 2.87311L10.923 2.20384L10.1717 1.45255L9.50243 2.12182L9.13882 1.75822C8.70348 1.3241 8.12962 1.05649 7.51724 1.00203C6.90486 0.947565 6.29278 1.1097 5.78766 1.46019C5.25502 1.12381 4.62382 0.978593 3.99773 1.04839C3.37165 1.11819 2.78792 1.39886 2.34244 1.84428L2.32916 1.85756C2.07059 2.11472 1.86559 2.42061 1.72603 2.75752C1.58647 3.09444 1.51512 3.45569 1.51611 3.82036V9.79692H0.453613V10.8594H1.51611V11.8788C1.51609 11.9644 1.5299 12.0495 1.55702 12.1307L2.54541 15.0958C2.59816 15.2545 2.69958 15.3926 2.83528 15.4904C2.97097 15.5882 3.13404 15.6408 3.30131 15.6407H3.72963L3.34229 16.9688H4.44904L4.83643 15.6407H11.746L12.1444 16.9688H13.2534L12.855 15.6407H13.5433C13.7106 15.6408 13.8737 15.5883 14.0094 15.4905C14.1451 15.3926 14.2466 15.2545 14.2993 15.0958L15.2876 12.1307C15.3148 12.0495 15.3286 11.9644 15.3286 11.8788V10.8594H16.3911V9.79692H15.3286ZM6.18182 2.5095C6.47453 2.21742 6.87116 2.05339 7.28468 2.05339C7.69819 2.05339 8.09482 2.21742 8.38753 2.5095L8.75107 2.87311L6.54542 5.07876L6.18182 4.71522C5.88975 4.42249 5.72573 4.02587 5.72573 3.61236C5.72573 3.19885 5.88975 2.80223 6.18182 2.5095ZM14.2661 11.8356L13.352 14.5782H3.49276L2.57861 11.8356V10.8594H14.2661V11.8356Z" fill="black"/>
</svg>
