<svg width="15" height="15" viewBox="0 0 15 15" fill="none" xmlns="http://www.w3.org/2000/svg">
<path opacity="0.6" d="M13.0894 5.26954V0.625H11.6727V2.04167H3.17269V0.625H1.75602V5.26954C0.913105 5.76042 0.339355 6.66354 0.339355 7.70833V10.5417C0.339355 10.7295 0.413983 10.9097 0.546821 11.0425C0.67966 11.1754 0.859827 11.25 1.04769 11.25H1.75602V14.0833H3.17269V11.25H11.6727V14.0833H13.0894V11.25H13.7977C13.9856 11.25 14.1657 11.1754 14.2986 11.0425C14.4314 10.9097 14.506 10.7295 14.506 10.5417V7.70833C14.506 6.66354 13.9316 5.76042 13.0894 5.26954ZM11.6727 3.45833V4.875H8.13102V3.45833H11.6727ZM3.17269 3.45833H6.71436V4.875H3.17269V3.45833ZM13.0894 9.83334H1.75602V7.70833C1.75602 6.92704 2.3914 6.29167 3.17269 6.29167H11.6727C12.454 6.29167 13.0894 6.92704 13.0894 7.70833V9.83334Z" fill="black"/>
</svg>
