<svg width="294" height="98" viewBox="0 0 294 98" fill="none" xmlns="http://www.w3.org/2000/svg">
<path d="M77.6391 4.76406L83.9088 7.73893L85.4508 12.5758L88.7179 17.9982L93.2626 20.3875L92.5652 26.0132L86.1531 31.3746L82.6264 33.3871L77.6391 35.3107L71.0846 39.7992L69.8024 47.4049L63.0697 52.8551L50.8868 58.3941L42.8716 67.0504L40.9481 76.0273L36.4597 79.8745L27.8034 83.0805L25.8798 90.1338L18.7403 94.9097L3.11688 79.2863L5.0406 74.9766L5.68181 70.4881L13.3763 66.6409L18.7403 62.7938L26.5208 52.8551L37.4213 47.4049L42.8716 41.634L45.7568 31.3746L59.0086 23.3946L71.0846 15.3446L77.6391 4.76406Z" fill="black"/>
<path d="M90.6088 76.5357C88.5162 78.4508 85.8402 79.4083 82.5807 79.4083C78.5477 79.4083 75.377 78.1147 73.0688 75.5275C70.7606 72.9275 69.6064 69.3637 69.6064 64.836C69.6064 59.9405 70.9191 56.1675 73.5444 53.5168C75.8273 51.2086 78.7316 50.0545 82.2573 50.0545C86.9753 50.0545 90.4249 51.6017 92.6063 54.6963C93.8112 56.4338 94.458 58.1777 94.5468 59.9279H88.6874C88.3069 58.5835 87.8187 57.5689 87.2226 56.884C86.1572 55.6665 84.5783 55.0577 82.4856 55.0577C80.3549 55.0577 78.6745 55.9202 77.4443 57.645C76.2141 59.3571 75.599 61.7859 75.599 64.9311C75.599 68.0764 76.2458 70.4354 77.5394 72.008C78.8457 73.568 80.5008 74.348 82.5046 74.348C84.5592 74.348 86.1255 73.6758 87.2036 72.3314C87.7996 71.6085 88.2943 70.5242 88.6874 69.0784H94.4897C93.9824 72.1349 92.6888 74.6207 90.6088 76.5357Z" fill="black"/>
<path d="M115.701 78.6284L113.814 72.3314L115.701 66.1106H104.744V78.6284H98.9413L99.7074 69.0784L98.9413 61.1026V57.5974L99.7074 54.0923L98.9413 50.5871L101.631 51.2965L104.744 50.5871L103.875 56.4261L104.744 61.2786H115.701V55.9328L116.699 51.2965L118.623 49.6935L121.523 50.5871L120.547 54.6963V59.9279L121.523 64.6077V68.609L119.905 71.8151L121.523 75.0211V78.6284H115.701Z" fill="black"/>
<path d="M143.552 72.8641H133.222L131.282 78.6284H125.156L135.163 50.5871H141.783L151.714 78.6284H145.36L143.552 72.8641ZM141.916 68.032L138.416 56.9982L134.801 68.032H141.916Z" fill="black"/>
<path d="M167.199 67.6325H161.149V78.6284H155.423V50.5871H169.178C171.143 50.6252 172.653 50.8661 173.705 51.31C174.771 51.7539 175.671 52.4071 176.407 53.2695C177.015 53.9797 177.497 54.766 177.852 55.6285C178.208 56.4909 178.385 57.4738 178.385 58.5772C178.385 59.9088 178.049 61.2215 177.377 62.5151C176.705 63.7961 175.595 64.7029 174.048 65.2355C175.341 65.7555 176.254 66.4974 176.787 67.4613C177.332 68.4125 177.605 69.871 177.605 71.8368V73.7202C177.605 75.0011 177.656 75.8699 177.757 76.3265C177.909 77.0494 178.265 77.582 178.823 77.9245V78.6284H172.374C172.196 78.0069 172.069 77.5059 171.993 77.1255C171.841 76.3391 171.758 75.5338 171.746 74.7094L171.708 72.1032C171.682 70.3149 171.353 69.1227 170.718 68.5267C170.097 67.9306 168.924 67.6325 167.199 67.6325ZM170.757 62.5341C171.923 62.0015 172.507 60.9488 172.507 59.3762C172.507 57.6767 171.942 56.5353 170.814 55.9519C170.179 55.6221 169.228 55.4572 167.96 55.4572H161.149V62.9907H167.789C169.108 62.9907 170.097 62.8385 170.757 62.5341Z" fill="black"/>
<path d="M203.23 76.5357C201.138 78.4508 198.462 79.4083 195.202 79.4083C191.169 79.4083 187.998 78.1147 185.69 75.5275C183.382 72.9275 182.228 69.3637 182.228 64.836C182.228 59.9405 183.541 56.1675 186.166 53.5168C188.449 51.2086 191.353 50.0545 194.879 50.0545C199.597 50.0545 203.046 51.6017 205.228 54.6963C206.433 56.4338 207.079 58.1777 207.168 59.9279H201.309C200.928 58.5835 200.44 57.5689 199.844 56.884C198.779 55.6665 197.2 55.0577 195.107 55.0577C192.976 55.0577 191.296 55.9202 190.066 57.645C188.836 59.3571 188.22 61.7859 188.22 64.9311C188.22 68.0764 188.867 70.4354 190.161 72.008C191.467 73.568 193.122 74.348 195.126 74.348C197.181 74.348 198.747 73.6758 199.825 72.3314C200.421 71.6085 200.916 70.5242 201.309 69.0784H207.111C206.604 72.1349 205.31 74.6207 203.23 76.5357Z" fill="black"/>
<path d="M224.004 79.4083C219.997 79.4083 216.934 78.3176 214.816 76.1362C211.975 73.4602 210.554 69.6047 210.554 64.5697C210.554 59.4332 211.975 55.5777 214.816 53.0032C216.934 50.8218 219.997 49.7311 224.004 49.7311C228.012 49.7311 231.075 50.8218 233.193 53.0032C236.021 55.5777 237.435 59.4332 237.435 64.5697C237.435 69.6047 236.021 73.4602 233.193 76.1362C231.075 78.3176 228.012 79.4083 224.004 79.4083ZM229.54 71.8749C230.897 70.1627 231.576 67.7277 231.576 64.5697C231.576 61.4244 230.891 58.9957 229.521 57.2835C228.164 55.5587 226.325 54.6963 224.004 54.6963C221.683 54.6963 219.832 55.5524 218.449 57.2645C217.067 58.9767 216.376 61.4117 216.376 64.5697C216.376 67.7277 217.067 70.1627 218.449 71.8749C219.832 73.587 221.683 74.4431 224.004 74.4431C226.325 74.4431 228.171 73.587 229.54 71.8749Z" fill="black"/>
<path d="M258.343 72.8641H248.013L246.072 78.6284H239.946L249.953 50.5871H256.573L266.504 78.6284H260.15L258.343 72.8641ZM256.706 68.032L253.206 56.9982L249.592 68.032H256.706Z" fill="black"/>
<path d="M270.08 50.5871H275.94V73.587H289.827V78.6284H270.08V50.5871Z" fill="black"/>
<path d="M71.6395 94.5215L75.6809 84.2395H76.7805L80.7219 94.5215H79.7223L78.537 91.2941H73.853L72.6391 94.5215H71.6395ZM74.1814 90.4658H78.2085L76.195 85.0678L74.1814 90.4658ZM86.5911 94.5215V84.2395H87.5622V94.5215H86.5911ZM106.464 89.0235C106.826 89.0235 107.159 88.9854 107.464 88.9092C107.778 88.8331 108.05 88.7141 108.278 88.5522C108.507 88.3809 108.687 88.1667 108.821 87.9096C108.954 87.6526 109.021 87.3432 109.021 86.9814C109.021 86.6006 108.949 86.2864 108.806 86.0389C108.673 85.7913 108.487 85.5962 108.249 85.4534C108.021 85.3106 107.754 85.2106 107.45 85.1535C107.155 85.0964 106.845 85.0678 106.522 85.0678H103.437V89.0235H106.464ZM103.437 89.8518V94.5215H102.466V84.2395H106.493C107.626 84.2395 108.492 84.4537 109.092 84.8821C109.692 85.301 109.992 85.9865 109.992 86.9385C109.992 87.5859 109.858 88.1 109.592 88.4808C109.335 88.8616 108.911 89.1853 108.321 89.4519C108.626 89.5566 108.864 89.709 109.035 89.9089C109.206 90.1088 109.335 90.3373 109.42 90.5943C109.506 90.8514 109.559 91.1227 109.578 91.4083C109.606 91.6939 109.625 91.97 109.635 92.2366C109.644 92.6269 109.658 92.9506 109.678 93.2077C109.706 93.4647 109.735 93.6742 109.763 93.836C109.801 93.9979 109.844 94.1264 109.892 94.2216C109.939 94.3073 109.996 94.3739 110.063 94.4215V94.5215H108.992C108.887 94.3501 108.811 94.1121 108.764 93.8075C108.725 93.5028 108.692 93.1839 108.664 92.8507C108.645 92.5175 108.626 92.1938 108.606 91.8796C108.597 91.5654 108.573 91.3084 108.535 91.1084C108.478 90.8324 108.383 90.6134 108.249 90.4515C108.126 90.2802 107.973 90.1517 107.792 90.066C107.612 89.9803 107.407 89.9232 107.178 89.8946C106.959 89.866 106.731 89.8518 106.493 89.8518H103.437ZM121.373 90.3087C121.373 89.947 121.321 89.609 121.216 89.2948C121.121 88.9711 120.973 88.695 120.773 88.4666C120.583 88.2285 120.34 88.0429 120.045 87.9096C119.75 87.7668 119.412 87.6954 119.031 87.6954C118.65 87.6954 118.312 87.7668 118.017 87.9096C117.732 88.0524 117.484 88.2428 117.275 88.4808C117.075 88.7188 116.913 88.9949 116.789 89.3091C116.665 89.6233 116.584 89.9565 116.546 90.3087H121.373ZM116.546 91.0228C116.546 91.4226 116.599 91.8034 116.703 92.1652C116.808 92.5175 116.96 92.8269 117.16 93.0934C117.37 93.3505 117.632 93.5599 117.946 93.7218C118.26 93.8741 118.622 93.9503 119.031 93.9503C119.593 93.9503 120.074 93.8027 120.473 93.5076C120.873 93.2124 121.14 92.7935 121.273 92.2509H122.23C122.125 92.6031 121.987 92.9316 121.816 93.2362C121.644 93.5314 121.43 93.7932 121.173 94.0217C120.916 94.2406 120.612 94.412 120.259 94.5358C119.907 94.6595 119.498 94.7214 119.031 94.7214C118.441 94.7214 117.932 94.6214 117.503 94.4215C117.075 94.2216 116.722 93.9503 116.446 93.6075C116.17 93.2553 115.966 92.8459 115.832 92.3794C115.699 91.9034 115.632 91.3941 115.632 90.8514C115.632 90.3087 115.709 89.7994 115.861 89.3234C116.023 88.8474 116.246 88.4332 116.532 88.081C116.827 87.7192 117.184 87.4384 117.603 87.2384C118.022 87.029 118.498 86.9243 119.031 86.9243C120.05 86.9243 120.85 87.2765 121.43 87.981C122.011 88.676 122.297 89.6899 122.287 91.0228H116.546ZM132.936 90.6372C132.574 90.7895 132.207 90.8895 131.836 90.9371C131.465 90.9847 131.093 91.0228 130.722 91.0513C130.065 91.0989 129.551 91.2465 129.18 91.494C128.818 91.7415 128.637 92.1176 128.637 92.6222C128.637 92.8507 128.68 93.0506 128.766 93.222C128.861 93.3838 128.98 93.5218 129.123 93.6361C129.275 93.7408 129.446 93.8217 129.637 93.8789C129.837 93.9265 130.037 93.9503 130.237 93.9503C130.579 93.9503 130.912 93.9074 131.236 93.8217C131.56 93.7361 131.845 93.6075 132.093 93.4362C132.35 93.2553 132.555 93.0316 132.707 92.765C132.859 92.4889 132.936 92.1652 132.936 91.7939V90.6372ZM131.493 90.2088C131.655 90.1897 131.845 90.1612 132.064 90.1231C132.293 90.085 132.479 90.0326 132.621 89.966C132.764 89.8994 132.85 89.7899 132.878 89.6376C132.917 89.4757 132.936 89.3281 132.936 89.1949C132.936 88.7569 132.793 88.3999 132.507 88.1238C132.231 87.8382 131.76 87.6954 131.093 87.6954C130.798 87.6954 130.527 87.724 130.279 87.7811C130.032 87.8287 129.813 87.9191 129.622 88.0524C129.442 88.1762 129.289 88.3475 129.165 88.5665C129.051 88.776 128.975 89.0425 128.937 89.3662H128.066C128.094 88.9283 128.194 88.557 128.366 88.2523C128.537 87.9382 128.756 87.6859 129.023 87.4955C129.299 87.2955 129.613 87.1527 129.965 87.0671C130.327 86.9719 130.708 86.9243 131.108 86.9243C131.479 86.9243 131.826 86.9671 132.15 87.0528C132.483 87.1289 132.769 87.2575 133.007 87.4384C133.254 87.6097 133.445 87.843 133.578 88.1381C133.721 88.4332 133.792 88.795 133.792 89.2234V93.2505C133.792 93.5837 133.85 93.7979 133.964 93.8931C134.088 93.9788 134.33 93.955 134.692 93.8217V94.4929C134.625 94.512 134.525 94.5405 134.392 94.5786C134.268 94.6167 134.145 94.6357 134.021 94.6357C133.888 94.6357 133.759 94.6214 133.635 94.5929C133.492 94.5738 133.378 94.531 133.293 94.4644C133.207 94.3882 133.135 94.3025 133.078 94.2073C133.031 94.1026 132.997 93.9931 132.978 93.8789C132.959 93.7551 132.95 93.6266 132.95 93.4933C132.588 93.8931 132.174 94.1978 131.707 94.4072C131.241 94.6167 130.736 94.7214 130.194 94.7214C129.87 94.7214 129.556 94.6786 129.251 94.5929C128.956 94.5072 128.694 94.3739 128.466 94.193C128.237 94.0121 128.056 93.7932 127.923 93.5361C127.79 93.2696 127.723 92.9554 127.723 92.5936C127.723 91.3369 128.585 90.5943 130.308 90.3659L131.493 90.2088ZM140.299 94.5215V84.2395H141.156V94.5215H140.299ZM155.722 94.5215V84.2395H162.563V85.0678H156.694V88.7807H161.992V89.609H156.694V93.6932H162.706V94.5215H155.722ZM168.965 92.208C169.098 92.8459 169.336 93.2981 169.679 93.5647C170.031 93.8217 170.531 93.9503 171.179 93.9503C171.493 93.9503 171.764 93.9122 171.993 93.836C172.221 93.7599 172.407 93.6599 172.55 93.5361C172.702 93.4028 172.816 93.2553 172.892 93.0934C172.968 92.9316 173.007 92.7602 173.007 92.5793C173.007 92.2176 172.888 91.951 172.65 91.7796C172.421 91.5987 172.131 91.4607 171.778 91.3655C171.426 91.2608 171.045 91.1751 170.636 91.1084C170.227 91.0323 169.846 90.9228 169.494 90.78C169.141 90.6372 168.846 90.4325 168.608 90.1659C168.38 89.8994 168.265 89.5233 168.265 89.0378C168.265 88.4189 168.489 87.9144 168.937 87.524C169.394 87.1242 170.036 86.9243 170.864 86.9243C171.664 86.9243 172.312 87.1051 172.807 87.4669C173.311 87.8192 173.616 88.4142 173.721 89.252H172.849C172.773 88.6808 172.554 88.2809 172.193 88.0524C171.84 87.8144 171.393 87.6954 170.85 87.6954C170.308 87.6954 169.893 87.8144 169.608 88.0524C169.322 88.2809 169.179 88.5856 169.179 88.9664C169.179 89.2996 169.294 89.5566 169.522 89.7375C169.76 89.9089 170.055 90.0517 170.407 90.1659C170.76 90.2707 171.141 90.3659 171.55 90.4515C171.959 90.5372 172.34 90.661 172.692 90.8228C173.045 90.9752 173.335 91.1846 173.563 91.4512C173.801 91.7177 173.92 92.089 173.92 92.5651C173.92 92.9173 173.844 93.2315 173.692 93.5076C173.54 93.7741 173.33 93.9979 173.064 94.1788C172.797 94.3596 172.478 94.4929 172.107 94.5786C171.745 94.6738 171.345 94.7214 170.907 94.7214C170.469 94.7214 170.079 94.6548 169.736 94.5215C169.403 94.3977 169.117 94.2216 168.879 93.9931C168.641 93.7646 168.456 93.498 168.323 93.1934C168.189 92.8887 168.113 92.5603 168.094 92.208H168.965ZM182.346 94.55C182.241 94.5691 182.103 94.6024 181.932 94.65C181.76 94.6976 181.57 94.7214 181.361 94.7214C180.932 94.7214 180.604 94.6167 180.375 94.4072C180.156 94.1883 180.047 93.8027 180.047 93.2505V87.8382H179.004V87.1242H180.047V85.0678H180.904V87.1242H182.289V87.8382H180.904V92.9078C180.904 93.0887 180.908 93.2458 180.918 93.379C180.927 93.5123 180.956 93.6218 181.004 93.7075C181.051 93.7932 181.123 93.8551 181.218 93.8931C181.323 93.9312 181.465 93.9503 181.646 93.9503C181.76 93.9503 181.875 93.9407 181.989 93.9217C182.113 93.9027 182.232 93.8789 182.346 93.8503V94.55ZM192.704 90.6372C192.342 90.7895 191.976 90.8895 191.604 90.9371C191.233 90.9847 190.862 91.0228 190.49 91.0513C189.834 91.0989 189.319 91.2465 188.948 91.494C188.586 91.7415 188.405 92.1176 188.405 92.6222C188.405 92.8507 188.448 93.0506 188.534 93.222C188.629 93.3838 188.748 93.5218 188.891 93.6361C189.043 93.7408 189.215 93.8217 189.405 93.8789C189.605 93.9265 189.805 93.9503 190.005 93.9503C190.348 93.9503 190.681 93.9074 191.005 93.8217C191.328 93.7361 191.614 93.6075 191.861 93.4362C192.118 93.2553 192.323 93.0316 192.475 92.765C192.628 92.4889 192.704 92.1652 192.704 91.7939V90.6372ZM191.262 90.2088C191.423 90.1897 191.614 90.1612 191.833 90.1231C192.061 90.085 192.247 90.0326 192.39 89.966C192.533 89.8994 192.618 89.7899 192.647 89.6376C192.685 89.4757 192.704 89.3281 192.704 89.1949C192.704 88.7569 192.561 88.3999 192.276 88.1238C191.999 87.8382 191.528 87.6954 190.862 87.6954C190.567 87.6954 190.295 87.724 190.048 87.7811C189.8 87.8287 189.581 87.9191 189.391 88.0524C189.21 88.1762 189.058 88.3475 188.934 88.5665C188.82 88.776 188.743 89.0425 188.705 89.3662H187.834C187.863 88.9283 187.963 88.557 188.134 88.2523C188.306 87.9382 188.524 87.6859 188.791 87.4955C189.067 87.2955 189.381 87.1527 189.734 87.0671C190.095 86.9719 190.476 86.9243 190.876 86.9243C191.247 86.9243 191.595 86.9671 191.918 87.0528C192.252 87.1289 192.537 87.2575 192.775 87.4384C193.023 87.6097 193.213 87.843 193.347 88.1381C193.489 88.4332 193.561 88.795 193.561 89.2234V93.2505C193.561 93.5837 193.618 93.7979 193.732 93.8931C193.856 93.9788 194.099 93.955 194.46 93.8217V94.4929C194.394 94.512 194.294 94.5405 194.161 94.5786C194.037 94.6167 193.913 94.6357 193.789 94.6357C193.656 94.6357 193.527 94.6214 193.404 94.5929C193.261 94.5738 193.147 94.531 193.061 94.4644C192.975 94.3882 192.904 94.3025 192.847 94.2073C192.799 94.1026 192.766 93.9931 192.747 93.8789C192.728 93.7551 192.718 93.6266 192.718 93.4933C192.356 93.8931 191.942 94.1978 191.476 94.4072C191.009 94.6167 190.505 94.7214 189.962 94.7214C189.638 94.7214 189.324 94.6786 189.02 94.5929C188.724 94.5072 188.463 94.3739 188.234 94.193C188.006 94.0121 187.825 93.7932 187.691 93.5361C187.558 93.2696 187.492 92.9554 187.492 92.5936C187.492 91.3369 188.353 90.5943 190.076 90.3659L191.262 90.2088ZM202.538 94.55C202.434 94.5691 202.296 94.6024 202.124 94.65C201.953 94.6976 201.762 94.7214 201.553 94.7214C201.125 94.7214 200.796 94.6167 200.568 94.4072C200.349 94.1883 200.239 93.8027 200.239 93.2505V87.8382H199.197V87.1242H200.239V85.0678H201.096V87.1242H202.481V87.8382H201.096V92.9078C201.096 93.0887 201.101 93.2458 201.11 93.379C201.12 93.5123 201.148 93.6218 201.196 93.7075C201.244 93.7932 201.315 93.8551 201.41 93.8931C201.515 93.9312 201.658 93.9503 201.839 93.9503C201.953 93.9503 202.067 93.9407 202.181 93.9217C202.305 93.9027 202.424 93.8789 202.538 93.8503V94.55ZM213.41 90.3087C213.41 89.947 213.358 89.609 213.253 89.2948C213.158 88.9711 213.011 88.695 212.811 88.4666C212.62 88.2285 212.377 88.0429 212.082 87.9096C211.787 87.7668 211.449 87.6954 211.068 87.6954C210.688 87.6954 210.35 87.7668 210.055 87.9096C209.769 88.0524 209.521 88.2428 209.312 88.4808C209.112 88.7188 208.95 88.9949 208.826 89.3091C208.703 89.6233 208.622 89.9565 208.584 90.3087H213.41ZM208.584 91.0228C208.584 91.4226 208.636 91.8034 208.741 92.1652C208.845 92.5175 208.998 92.8269 209.198 93.0934C209.407 93.3505 209.669 93.5599 209.983 93.7218C210.297 93.8741 210.659 93.9503 211.068 93.9503C211.63 93.9503 212.111 93.8027 212.511 93.5076C212.911 93.2124 213.177 92.7935 213.31 92.2509H214.267C214.163 92.6031 214.024 92.9316 213.853 93.2362C213.682 93.5314 213.468 93.7932 213.21 94.0217C212.953 94.2406 212.649 94.412 212.297 94.5358C211.944 94.6595 211.535 94.7214 211.068 94.7214C210.478 94.7214 209.969 94.6214 209.54 94.4215C209.112 94.2216 208.76 93.9503 208.484 93.6075C208.208 93.2553 208.003 92.8459 207.87 92.3794C207.736 91.9034 207.67 91.3941 207.67 90.8514C207.67 90.3087 207.746 89.7994 207.898 89.3234C208.06 88.8474 208.284 88.4332 208.569 88.081C208.864 87.7192 209.221 87.4384 209.64 87.2384C210.059 87.029 210.535 86.9243 211.068 86.9243C212.087 86.9243 212.887 87.2765 213.468 87.981C214.048 88.676 214.334 89.6899 214.324 91.0228H208.584ZM228.776 91.4512C228.814 91.9082 228.914 92.2985 229.076 92.6222C229.247 92.9363 229.461 93.1934 229.719 93.3933C229.985 93.5933 230.29 93.7408 230.632 93.836C230.975 93.9217 231.342 93.9645 231.732 93.9645C232.189 93.9645 232.584 93.9074 232.917 93.7932C233.251 93.6789 233.522 93.5266 233.731 93.3362C233.941 93.1363 234.093 92.9078 234.188 92.6507C234.293 92.3937 234.345 92.1224 234.345 91.8367C234.345 91.4369 234.255 91.1132 234.074 90.8657C233.893 90.6181 233.655 90.4182 233.36 90.2659C233.074 90.104 232.741 89.9755 232.36 89.8803C231.989 89.7851 231.604 89.6947 231.204 89.609C230.813 89.5138 230.428 89.4043 230.047 89.2805C229.676 89.1568 229.342 88.9902 229.047 88.7807C228.762 88.5713 228.528 88.3047 228.348 87.981C228.167 87.6478 228.076 87.2289 228.076 86.7243C228.076 86.3721 228.148 86.0293 228.29 85.6961C228.443 85.3629 228.662 85.0678 228.947 84.8107C229.243 84.5537 229.609 84.349 230.047 84.1967C230.485 84.0444 230.99 83.9682 231.561 83.9682C232.141 83.9682 232.646 84.0491 233.074 84.211C233.512 84.3728 233.874 84.5965 234.16 84.8821C234.445 85.1582 234.66 85.4819 234.802 85.8532C234.945 86.2245 235.017 86.6196 235.017 87.0385H234.088C234.088 86.6482 234.017 86.3102 233.874 86.0246C233.741 85.739 233.555 85.5057 233.317 85.3248C233.079 85.144 232.808 85.0107 232.503 84.925C232.199 84.8393 231.884 84.7965 231.561 84.7965C231.066 84.7965 230.647 84.8679 230.304 85.0107C229.971 85.144 229.704 85.3201 229.504 85.539C229.304 85.758 229.166 86.0008 229.09 86.2674C229.014 86.5339 229 86.8005 229.047 87.0671C229.104 87.4003 229.238 87.6668 229.447 87.8668C229.657 88.0667 229.914 88.2333 230.218 88.3666C230.523 88.4904 230.856 88.5951 231.218 88.6808C231.589 88.7569 231.965 88.8426 232.346 88.9378C232.727 89.0235 233.093 89.1282 233.446 89.252C233.808 89.3757 234.126 89.5423 234.403 89.7518C234.679 89.9612 234.898 90.2326 235.059 90.5658C235.231 90.8895 235.316 91.2989 235.316 91.7939C235.316 92.7459 234.988 93.4838 234.331 94.0074C233.674 94.531 232.751 94.7928 231.561 94.7928C231.028 94.7928 230.533 94.7214 230.076 94.5786C229.619 94.4453 229.223 94.2406 228.89 93.9645C228.557 93.6789 228.295 93.3314 228.105 92.9221C227.924 92.5032 227.834 92.0129 227.834 91.4512H228.776ZM246.474 90.3087C246.474 89.947 246.422 89.609 246.317 89.2948C246.222 88.9711 246.074 88.695 245.874 88.4666C245.684 88.2285 245.441 88.0429 245.146 87.9096C244.851 87.7668 244.513 87.6954 244.132 87.6954C243.751 87.6954 243.413 87.7668 243.118 87.9096C242.833 88.0524 242.585 88.2428 242.376 88.4808C242.176 88.7188 242.014 88.9949 241.89 89.3091C241.766 89.6233 241.686 89.9565 241.647 90.3087H246.474ZM241.647 91.0228C241.647 91.4226 241.7 91.8034 241.805 92.1652C241.909 92.5175 242.062 92.8269 242.262 93.0934C242.471 93.3505 242.733 93.5599 243.047 93.7218C243.361 93.8741 243.723 93.9503 244.132 93.9503C244.694 93.9503 245.175 93.8027 245.575 93.5076C245.974 93.2124 246.241 92.7935 246.374 92.2509H247.331C247.226 92.6031 247.088 92.9316 246.917 93.2362C246.746 93.5314 246.531 93.7932 246.274 94.0217C246.017 94.2406 245.713 94.412 245.36 94.5358C245.008 94.6595 244.599 94.7214 244.132 94.7214C243.542 94.7214 243.033 94.6214 242.604 94.4215C242.176 94.2216 241.824 93.9503 241.547 93.6075C241.271 93.2553 241.067 92.8459 240.933 92.3794C240.8 91.9034 240.733 91.3941 240.733 90.8514C240.733 90.3087 240.81 89.7994 240.962 89.3234C241.124 88.8474 241.348 88.4332 241.633 88.081C241.928 87.7192 242.285 87.4384 242.704 87.2384C243.123 87.029 243.599 86.9243 244.132 86.9243C245.151 86.9243 245.951 87.2765 246.531 87.981C247.112 88.676 247.398 89.6899 247.388 91.0228H241.647ZM258.037 90.6372C257.675 90.7895 257.308 90.8895 256.937 90.9371C256.566 90.9847 256.194 91.0228 255.823 91.0513C255.166 91.0989 254.652 91.2465 254.281 91.494C253.919 91.7415 253.738 92.1176 253.738 92.6222C253.738 92.8507 253.781 93.0506 253.867 93.222C253.962 93.3838 254.081 93.5218 254.224 93.6361C254.376 93.7408 254.547 93.8217 254.738 93.8789C254.938 93.9265 255.138 93.9503 255.338 93.9503C255.68 93.9503 256.014 93.9074 256.337 93.8217C256.661 93.7361 256.947 93.6075 257.194 93.4362C257.451 93.2553 257.656 93.0316 257.808 92.765C257.96 92.4889 258.037 92.1652 258.037 91.7939V90.6372ZM256.594 90.2088C256.756 90.1897 256.947 90.1612 257.166 90.1231C257.394 90.085 257.58 90.0326 257.722 89.966C257.865 89.8994 257.951 89.7899 257.98 89.6376C258.018 89.4757 258.037 89.3281 258.037 89.1949C258.037 88.7569 257.894 88.3999 257.608 88.1238C257.332 87.8382 256.861 87.6954 256.194 87.6954C255.899 87.6954 255.628 87.724 255.38 87.7811C255.133 87.8287 254.914 87.9191 254.724 88.0524C254.543 88.1762 254.39 88.3475 254.267 88.5665C254.152 88.776 254.076 89.0425 254.038 89.3662H253.167C253.196 88.9283 253.296 88.557 253.467 88.2523C253.638 87.9382 253.857 87.6859 254.124 87.4955C254.4 87.2955 254.714 87.1527 255.066 87.0671C255.428 86.9719 255.809 86.9243 256.209 86.9243C256.58 86.9243 256.928 86.9671 257.251 87.0528C257.584 87.1289 257.87 87.2575 258.108 87.4384C258.356 87.6097 258.546 87.843 258.679 88.1381C258.822 88.4332 258.893 88.795 258.893 89.2234V93.2505C258.893 93.5837 258.951 93.7979 259.065 93.8931C259.189 93.9788 259.431 93.955 259.793 93.8217V94.4929C259.727 94.512 259.627 94.5405 259.493 94.5786C259.37 94.6167 259.246 94.6357 259.122 94.6357C258.989 94.6357 258.86 94.6214 258.736 94.5929C258.594 94.5738 258.479 94.531 258.394 94.4644C258.308 94.3882 258.237 94.3025 258.179 94.2073C258.132 94.1026 258.099 93.9931 258.08 93.8789C258.06 93.7551 258.051 93.6266 258.051 93.4933C257.689 93.8931 257.275 94.1978 256.809 94.4072C256.342 94.6167 255.837 94.7214 255.295 94.7214C254.971 94.7214 254.657 94.6786 254.352 94.5929C254.057 94.5072 253.795 94.3739 253.567 94.193C253.338 94.0121 253.157 93.7932 253.024 93.5361C252.891 93.2696 252.824 92.9554 252.824 92.5936C252.824 91.3369 253.686 90.5943 255.409 90.3659L256.594 90.2088ZM266.172 94.5215H265.315V87.1242H266.172V88.5094H266.2C266.438 87.9191 266.743 87.5098 267.114 87.2813C267.495 87.0433 267.995 86.9243 268.614 86.9243V87.8525C268.128 87.843 267.728 87.9191 267.414 88.081C267.1 88.2428 266.848 88.4618 266.657 88.7379C266.476 89.014 266.348 89.3424 266.272 89.7232C266.205 90.0945 266.172 90.4849 266.172 90.8942V94.5215ZM279.159 89.4519C279.007 88.8997 278.745 88.4713 278.373 88.1667C278.002 87.8525 277.531 87.6954 276.96 87.6954C276.522 87.6954 276.146 87.7858 275.832 87.9667C275.517 88.1476 275.26 88.3904 275.06 88.695C274.86 88.9902 274.713 89.3281 274.618 89.709C274.522 90.0802 274.475 90.4563 274.475 90.8371C274.475 91.2274 274.518 91.6083 274.603 91.9796C274.699 92.3508 274.846 92.6841 275.046 92.9792C275.246 93.2743 275.503 93.5123 275.817 93.6932C276.131 93.8646 276.512 93.9503 276.96 93.9503C277.598 93.9503 278.107 93.7741 278.488 93.4219C278.878 93.0696 279.126 92.5841 279.23 91.9653H280.144C280.068 92.3746 279.944 92.7507 279.773 93.0934C279.611 93.4266 279.397 93.717 279.13 93.9645C278.873 94.2026 278.564 94.3882 278.202 94.5215C277.84 94.6548 277.426 94.7214 276.96 94.7214C276.369 94.7214 275.86 94.6214 275.432 94.4215C275.003 94.2216 274.651 93.9503 274.375 93.6075C274.099 93.2553 273.894 92.8411 273.761 92.3651C273.628 91.8891 273.561 91.3798 273.561 90.8371C273.561 90.323 273.632 89.8327 273.775 89.3662C273.927 88.8902 274.146 88.4713 274.432 88.1095C274.718 87.7478 275.07 87.4622 275.489 87.2527C275.917 87.0337 276.407 86.9243 276.96 86.9243C277.816 86.9243 278.507 87.1289 279.03 87.5383C279.563 87.9477 279.897 88.5856 280.03 89.4519H279.159ZM285.994 94.5215V84.2395H286.851V88.1524C287.194 87.7906 287.546 87.4955 287.908 87.267C288.279 87.0385 288.722 86.9243 289.236 86.9243C289.693 86.9243 290.117 87.0052 290.507 87.167C290.897 87.3194 291.226 87.5907 291.492 87.981C291.673 88.2476 291.778 88.5237 291.807 88.8093C291.845 89.0854 291.864 89.3757 291.864 89.6804V94.5215H291.007V89.6947C291.007 89.0283 290.859 88.5284 290.564 88.1952C290.269 87.862 289.779 87.6954 289.093 87.6954C288.827 87.6954 288.584 87.7382 288.365 87.8239C288.146 87.9001 287.946 88.0048 287.765 88.1381C287.594 88.2714 287.446 88.4237 287.323 88.5951C287.199 88.7664 287.104 88.9473 287.037 89.1377C286.951 89.3757 286.899 89.6042 286.88 89.8232C286.861 90.0422 286.851 90.2802 286.851 90.5372V94.5215H285.994Z" fill="black"/>
</svg>
